<mxfile host="app.diagrams.net" agent="Mozilla/5.0 (Windows NT 10.0; Win64; x64) AppleWebKit/537.36 (KHTML, like Gecko) Chrome/128.0.0.0 Safari/537.36 Edg/128.0.0.0" version="24.7.14">
  <diagram name="FOC" id="eaEPCjDVHqUpBZP3leCy">
    <mxGraphModel dx="904" dy="937" grid="1" gridSize="10" guides="1" tooltips="1" connect="1" arrows="1" fold="1" page="1" pageScale="1" pageWidth="827" pageHeight="1169" math="0" shadow="0">
      <root>
        <mxCell id="iMa34KQQT_nmR7081gpe-0" />
        <mxCell id="iMa34KQQT_nmR7081gpe-1" parent="iMa34KQQT_nmR7081gpe-0" />
        <mxCell id="iMa34KQQT_nmR7081gpe-2" value="" style="group" parent="iMa34KQQT_nmR7081gpe-1" vertex="1" connectable="0">
          <mxGeometry x="1820" y="640" width="465" height="410" as="geometry" />
        </mxCell>
        <mxCell id="iMa34KQQT_nmR7081gpe-3" style="edgeStyle=orthogonalEdgeStyle;rounded=0;orthogonalLoop=1;jettySize=auto;html=1;exitX=0.5;exitY=1;exitDx=0;exitDy=0;exitPerimeter=0;entryX=0.5;entryY=0;entryDx=0;entryDy=0;" parent="iMa34KQQT_nmR7081gpe-2" source="iMa34KQQT_nmR7081gpe-4" target="iMa34KQQT_nmR7081gpe-5" edge="1">
          <mxGeometry relative="1" as="geometry" />
        </mxCell>
        <mxCell id="iMa34KQQT_nmR7081gpe-4" value="&lt;font face=&quot;Times New Roman&quot;&gt;&lt;span style=&quot;font-size: 16px;&quot;&gt;UART&lt;/span&gt;&lt;/font&gt;&lt;br&gt;&lt;div&gt;&lt;font face=&quot;Times New Roman&quot;&gt;&lt;span style=&quot;font-size: 16px;&quot;&gt;接收标志位&lt;/span&gt;&lt;/font&gt;&lt;/div&gt;" style="strokeWidth=2;html=1;shape=mxgraph.flowchart.decision;whiteSpace=wrap;container=0;fillColor=#fff2cc;strokeColor=#d6b656;" parent="iMa34KQQT_nmR7081gpe-2" vertex="1">
          <mxGeometry x="166" y="7.75" width="120" height="80" as="geometry" />
        </mxCell>
        <mxCell id="iMa34KQQT_nmR7081gpe-5" value="&lt;font face=&quot;Times New Roman&quot;&gt;&lt;span style=&quot;font-size: 16px;&quot;&gt;解析数据&lt;/span&gt;&lt;/font&gt;" style="rounded=1;whiteSpace=wrap;html=1;container=0;" parent="iMa34KQQT_nmR7081gpe-2" vertex="1">
          <mxGeometry x="171" y="127.75" width="110" height="40" as="geometry" />
        </mxCell>
        <mxCell id="iMa34KQQT_nmR7081gpe-6" style="edgeStyle=orthogonalEdgeStyle;rounded=0;orthogonalLoop=1;jettySize=auto;html=1;exitX=0.5;exitY=1;exitDx=0;exitDy=0;exitPerimeter=0;" parent="iMa34KQQT_nmR7081gpe-2" source="iMa34KQQT_nmR7081gpe-7" target="iMa34KQQT_nmR7081gpe-9" edge="1">
          <mxGeometry relative="1" as="geometry" />
        </mxCell>
        <mxCell id="iMa34KQQT_nmR7081gpe-7" value="&lt;font face=&quot;Times New Roman&quot;&gt;&lt;span style=&quot;font-size: 16px;&quot;&gt;命令类型？&lt;/span&gt;&lt;/font&gt;" style="strokeWidth=2;html=1;shape=mxgraph.flowchart.decision;whiteSpace=wrap;container=0;" parent="iMa34KQQT_nmR7081gpe-2" vertex="1">
          <mxGeometry x="166" y="204.84000000000003" width="120" height="80" as="geometry" />
        </mxCell>
        <mxCell id="iMa34KQQT_nmR7081gpe-8" value="&lt;font face=&quot;Times New Roman&quot;&gt;&lt;span style=&quot;font-size: 16px;&quot;&gt;模式控制&lt;/span&gt;&lt;/font&gt;" style="rounded=1;whiteSpace=wrap;html=1;container=0;" parent="iMa34KQQT_nmR7081gpe-2" vertex="1">
          <mxGeometry x="44" y="342.25" width="110" height="40" as="geometry" />
        </mxCell>
        <mxCell id="iMa34KQQT_nmR7081gpe-9" value="&lt;font face=&quot;Times New Roman&quot;&gt;&lt;span style=&quot;font-size: 16px;&quot;&gt;状态反馈&lt;/span&gt;&lt;/font&gt;" style="rounded=1;whiteSpace=wrap;html=1;container=0;" parent="iMa34KQQT_nmR7081gpe-2" vertex="1">
          <mxGeometry x="171" y="340" width="110" height="40" as="geometry" />
        </mxCell>
        <mxCell id="iMa34KQQT_nmR7081gpe-10" value="&lt;font face=&quot;Times New Roman&quot;&gt;&lt;span style=&quot;font-size: 16px;&quot;&gt;Bootloader跳转&lt;/span&gt;&lt;/font&gt;" style="rounded=1;whiteSpace=wrap;html=1;container=0;" parent="iMa34KQQT_nmR7081gpe-2" vertex="1">
          <mxGeometry x="305" y="340" width="110" height="40" as="geometry" />
        </mxCell>
        <mxCell id="iMa34KQQT_nmR7081gpe-11" style="edgeStyle=orthogonalEdgeStyle;rounded=0;orthogonalLoop=1;jettySize=auto;html=1;exitX=0.5;exitY=1;exitDx=0;exitDy=0;entryX=0.5;entryY=0;entryDx=0;entryDy=0;entryPerimeter=0;" parent="iMa34KQQT_nmR7081gpe-2" source="iMa34KQQT_nmR7081gpe-5" target="iMa34KQQT_nmR7081gpe-7" edge="1">
          <mxGeometry relative="1" as="geometry" />
        </mxCell>
        <mxCell id="iMa34KQQT_nmR7081gpe-12" value="&lt;font style=&quot;font-size: 16px;&quot; face=&quot;Times New Roman&quot;&gt;是&lt;/font&gt;" style="text;html=1;align=center;verticalAlign=middle;whiteSpace=wrap;rounded=0;container=0;" parent="iMa34KQQT_nmR7081gpe-2" vertex="1">
          <mxGeometry x="235" y="87.75" width="60" height="30" as="geometry" />
        </mxCell>
        <mxCell id="iMa34KQQT_nmR7081gpe-13" value="" style="endArrow=none;html=1;rounded=0;" parent="iMa34KQQT_nmR7081gpe-2" edge="1">
          <mxGeometry width="50" height="50" relative="1" as="geometry">
            <mxPoint x="105" y="290" as="sourcePoint" />
            <mxPoint x="361" y="290" as="targetPoint" />
          </mxGeometry>
        </mxCell>
        <mxCell id="iMa34KQQT_nmR7081gpe-14" value="" style="endArrow=classic;html=1;rounded=0;" parent="iMa34KQQT_nmR7081gpe-2" edge="1">
          <mxGeometry width="50" height="50" relative="1" as="geometry">
            <mxPoint x="105" y="290" as="sourcePoint" />
            <mxPoint x="105" y="340" as="targetPoint" />
          </mxGeometry>
        </mxCell>
        <mxCell id="iMa34KQQT_nmR7081gpe-15" value="" style="endArrow=classic;html=1;rounded=0;" parent="iMa34KQQT_nmR7081gpe-2" edge="1">
          <mxGeometry width="50" height="50" relative="1" as="geometry">
            <mxPoint x="359.71000000000004" y="290" as="sourcePoint" />
            <mxPoint x="359.71000000000004" y="340" as="targetPoint" />
          </mxGeometry>
        </mxCell>
        <mxCell id="iMa34KQQT_nmR7081gpe-16" value="" style="rounded=0;whiteSpace=wrap;html=1;fillColor=none;dashed=1;container=0;" parent="iMa34KQQT_nmR7081gpe-2" vertex="1">
          <mxGeometry width="465" height="410" as="geometry" />
        </mxCell>
        <mxCell id="iMa34KQQT_nmR7081gpe-17" value="" style="group" parent="iMa34KQQT_nmR7081gpe-1" vertex="1" connectable="0">
          <mxGeometry x="1040" y="1220" width="1280" height="818" as="geometry" />
        </mxCell>
        <mxCell id="iMa34KQQT_nmR7081gpe-18" value="&lt;font face=&quot;Times New Roman&quot;&gt;&lt;span style=&quot;font-size: 16px;&quot;&gt;水位检测&lt;/span&gt;&lt;/font&gt;" style="rounded=1;whiteSpace=wrap;html=1;container=0;" parent="iMa34KQQT_nmR7081gpe-17" vertex="1">
          <mxGeometry x="844" y="328" width="110" height="40" as="geometry" />
        </mxCell>
        <mxCell id="iMa34KQQT_nmR7081gpe-19" style="edgeStyle=orthogonalEdgeStyle;rounded=0;orthogonalLoop=1;jettySize=auto;html=1;exitX=0.5;exitY=1;exitDx=0;exitDy=0;exitPerimeter=0;entryX=0.5;entryY=0;entryDx=0;entryDy=0;" parent="iMa34KQQT_nmR7081gpe-17" source="iMa34KQQT_nmR7081gpe-20" target="iMa34KQQT_nmR7081gpe-31" edge="1">
          <mxGeometry relative="1" as="geometry" />
        </mxCell>
        <mxCell id="iMa34KQQT_nmR7081gpe-20" value="&lt;font face=&quot;Times New Roman&quot;&gt;&lt;span style=&quot;font-size: 16px;&quot;&gt;中频任务&lt;/span&gt;&lt;/font&gt;&lt;br&gt;&lt;div&gt;&lt;font style=&quot;font-size: 16px;&quot; face=&quot;Times New Roman&quot;&gt;Systick中断&lt;/font&gt;&lt;/div&gt;" style="strokeWidth=2;html=1;shape=mxgraph.flowchart.decision;whiteSpace=wrap;container=0;fillColor=#fff2cc;strokeColor=#d6b656;" parent="iMa34KQQT_nmR7081gpe-17" vertex="1">
          <mxGeometry x="215" y="13" width="120" height="80" as="geometry" />
        </mxCell>
        <mxCell id="iMa34KQQT_nmR7081gpe-21" style="edgeStyle=orthogonalEdgeStyle;rounded=0;orthogonalLoop=1;jettySize=auto;html=1;exitX=0.5;exitY=1;exitDx=0;exitDy=0;entryX=0.5;entryY=0;entryDx=0;entryDy=0;" parent="iMa34KQQT_nmR7081gpe-17" source="iMa34KQQT_nmR7081gpe-22" target="iMa34KQQT_nmR7081gpe-26" edge="1">
          <mxGeometry relative="1" as="geometry" />
        </mxCell>
        <mxCell id="iMa34KQQT_nmR7081gpe-22" value="&lt;font face=&quot;Times New Roman&quot;&gt;&lt;span style=&quot;font-size: 16px;&quot;&gt;Fault Handing&lt;/span&gt;&lt;/font&gt;" style="rounded=1;whiteSpace=wrap;html=1;container=0;" parent="iMa34KQQT_nmR7081gpe-17" vertex="1">
          <mxGeometry x="430" y="521" width="110" height="40" as="geometry" />
        </mxCell>
        <mxCell id="iMa34KQQT_nmR7081gpe-23" style="edgeStyle=orthogonalEdgeStyle;rounded=0;orthogonalLoop=1;jettySize=auto;html=1;exitX=0.5;exitY=1;exitDx=0;exitDy=0;exitPerimeter=0;entryX=0.5;entryY=0;entryDx=0;entryDy=0;" parent="iMa34KQQT_nmR7081gpe-17" source="iMa34KQQT_nmR7081gpe-24" target="iMa34KQQT_nmR7081gpe-22" edge="1">
          <mxGeometry relative="1" as="geometry" />
        </mxCell>
        <mxCell id="iMa34KQQT_nmR7081gpe-24" value="&lt;font face=&quot;Times New Roman&quot;&gt;&lt;span style=&quot;font-size: 16px;&quot;&gt;故障标志？&lt;/span&gt;&lt;/font&gt;" style="strokeWidth=2;html=1;shape=mxgraph.flowchart.decision;whiteSpace=wrap;container=0;" parent="iMa34KQQT_nmR7081gpe-17" vertex="1">
          <mxGeometry x="425" y="411" width="120" height="80" as="geometry" />
        </mxCell>
        <mxCell id="iMa34KQQT_nmR7081gpe-25" style="edgeStyle=orthogonalEdgeStyle;rounded=0;orthogonalLoop=1;jettySize=auto;html=1;exitX=0.5;exitY=1;exitDx=0;exitDy=0;entryX=0.5;entryY=0;entryDx=0;entryDy=0;" parent="iMa34KQQT_nmR7081gpe-17" source="iMa34KQQT_nmR7081gpe-26" target="iMa34KQQT_nmR7081gpe-28" edge="1">
          <mxGeometry relative="1" as="geometry" />
        </mxCell>
        <mxCell id="iMa34KQQT_nmR7081gpe-26" value="&lt;font face=&quot;Times New Roman&quot;&gt;&lt;span style=&quot;font-size: 16px;&quot;&gt;停止电机&lt;/span&gt;&lt;/font&gt;" style="rounded=1;whiteSpace=wrap;html=1;container=0;" parent="iMa34KQQT_nmR7081gpe-17" vertex="1">
          <mxGeometry x="430" y="591" width="110" height="40" as="geometry" />
        </mxCell>
        <mxCell id="iMa34KQQT_nmR7081gpe-27" style="edgeStyle=orthogonalEdgeStyle;rounded=0;orthogonalLoop=1;jettySize=auto;html=1;exitX=0.5;exitY=1;exitDx=0;exitDy=0;entryX=0.5;entryY=0;entryDx=0;entryDy=0;" parent="iMa34KQQT_nmR7081gpe-17" source="iMa34KQQT_nmR7081gpe-28" target="iMa34KQQT_nmR7081gpe-29" edge="1">
          <mxGeometry relative="1" as="geometry" />
        </mxCell>
        <mxCell id="iMa34KQQT_nmR7081gpe-28" value="&lt;font face=&quot;Times New Roman&quot;&gt;&lt;span style=&quot;font-size: 16px;&quot;&gt;反馈故障信息&lt;/span&gt;&lt;/font&gt;" style="rounded=1;whiteSpace=wrap;html=1;container=0;" parent="iMa34KQQT_nmR7081gpe-17" vertex="1">
          <mxGeometry x="430" y="661" width="110" height="40" as="geometry" />
        </mxCell>
        <mxCell id="iMa34KQQT_nmR7081gpe-29" value="&lt;font face=&quot;Times New Roman&quot;&gt;&lt;span style=&quot;font-size: 16px;&quot;&gt;等待外部复位&lt;/span&gt;&lt;/font&gt;" style="rounded=1;whiteSpace=wrap;html=1;container=0;" parent="iMa34KQQT_nmR7081gpe-17" vertex="1">
          <mxGeometry x="430" y="731" width="110" height="40" as="geometry" />
        </mxCell>
        <mxCell id="iMa34KQQT_nmR7081gpe-30" style="edgeStyle=orthogonalEdgeStyle;rounded=0;orthogonalLoop=1;jettySize=auto;html=1;exitX=0.5;exitY=1;exitDx=0;exitDy=0;entryX=0.5;entryY=0;entryDx=0;entryDy=0;" parent="iMa34KQQT_nmR7081gpe-17" source="iMa34KQQT_nmR7081gpe-31" edge="1">
          <mxGeometry relative="1" as="geometry">
            <mxPoint x="275" y="218" as="targetPoint" />
          </mxGeometry>
        </mxCell>
        <mxCell id="iMa34KQQT_nmR7081gpe-31" value="&lt;font face=&quot;Times New Roman&quot;&gt;&lt;span style=&quot;font-size: 16px;&quot;&gt;标志位检测&lt;/span&gt;&lt;/font&gt;" style="rounded=1;whiteSpace=wrap;html=1;container=0;" parent="iMa34KQQT_nmR7081gpe-17" vertex="1">
          <mxGeometry x="220" y="128" width="110" height="40" as="geometry" />
        </mxCell>
        <mxCell id="iMa34KQQT_nmR7081gpe-32" value="&lt;font face=&quot;Times New Roman&quot;&gt;&lt;span style=&quot;font-size: 16px;&quot;&gt;标志位置位？&lt;/span&gt;&lt;/font&gt;" style="strokeWidth=2;html=1;shape=mxgraph.flowchart.decision;whiteSpace=wrap;container=0;" parent="iMa34KQQT_nmR7081gpe-17" vertex="1">
          <mxGeometry x="215" y="218.5" width="120" height="80" as="geometry" />
        </mxCell>
        <mxCell id="iMa34KQQT_nmR7081gpe-33" value="&lt;font face=&quot;Times New Roman&quot;&gt;&lt;span style=&quot;font-size: 16px;&quot;&gt;检测触发信号&lt;/span&gt;&lt;/font&gt;" style="rounded=1;whiteSpace=wrap;html=1;container=0;" parent="iMa34KQQT_nmR7081gpe-17" vertex="1">
          <mxGeometry x="699" y="118" width="110" height="40" as="geometry" />
        </mxCell>
        <mxCell id="iMa34KQQT_nmR7081gpe-34" style="edgeStyle=orthogonalEdgeStyle;rounded=0;orthogonalLoop=1;jettySize=auto;html=1;exitX=0.5;exitY=1;exitDx=0;exitDy=0;exitPerimeter=0;entryX=0.5;entryY=0;entryDx=0;entryDy=0;" parent="iMa34KQQT_nmR7081gpe-17" source="iMa34KQQT_nmR7081gpe-35" target="iMa34KQQT_nmR7081gpe-33" edge="1">
          <mxGeometry relative="1" as="geometry" />
        </mxCell>
        <mxCell id="iMa34KQQT_nmR7081gpe-35" value="&lt;font face=&quot;Times New Roman&quot;&gt;&lt;span style=&quot;font-size: 16px;&quot;&gt;事件驱动&lt;/span&gt;&lt;/font&gt;&lt;br&gt;&lt;div&gt;&lt;font style=&quot;font-size: 16px;&quot; face=&quot;Times New Roman&quot;&gt;触发中断&lt;/font&gt;&lt;/div&gt;" style="strokeWidth=2;html=1;shape=mxgraph.flowchart.decision;whiteSpace=wrap;container=0;fillColor=#fff2cc;strokeColor=#d6b656;" parent="iMa34KQQT_nmR7081gpe-17" vertex="1">
          <mxGeometry x="694" y="13" width="120" height="80" as="geometry" />
        </mxCell>
        <mxCell id="iMa34KQQT_nmR7081gpe-36" style="edgeStyle=orthogonalEdgeStyle;rounded=0;orthogonalLoop=1;jettySize=auto;html=1;exitX=0.5;exitY=1;exitDx=0;exitDy=0;exitPerimeter=0;entryX=0.5;entryY=0;entryDx=0;entryDy=0;" parent="iMa34KQQT_nmR7081gpe-17" source="iMa34KQQT_nmR7081gpe-37" target="iMa34KQQT_nmR7081gpe-40" edge="1">
          <mxGeometry relative="1" as="geometry" />
        </mxCell>
        <mxCell id="iMa34KQQT_nmR7081gpe-37" value="&lt;font face=&quot;Times New Roman&quot;&gt;&lt;span style=&quot;font-size: 16px;&quot;&gt;当前触发？&lt;/span&gt;&lt;/font&gt;" style="strokeWidth=2;html=1;shape=mxgraph.flowchart.decision;whiteSpace=wrap;container=0;" parent="iMa34KQQT_nmR7081gpe-17" vertex="1">
          <mxGeometry x="694" y="193" width="120" height="80" as="geometry" />
        </mxCell>
        <mxCell id="iMa34KQQT_nmR7081gpe-38" value="&lt;font face=&quot;Times New Roman&quot;&gt;&lt;span style=&quot;font-size: 16px;&quot;&gt;模式标志置位&lt;/span&gt;&lt;/font&gt;" style="rounded=1;whiteSpace=wrap;html=1;container=0;" parent="iMa34KQQT_nmR7081gpe-17" vertex="1">
          <mxGeometry x="564" y="328" width="110" height="40" as="geometry" />
        </mxCell>
        <mxCell id="iMa34KQQT_nmR7081gpe-39" style="edgeStyle=orthogonalEdgeStyle;rounded=0;orthogonalLoop=1;jettySize=auto;html=1;exitX=0.5;exitY=1;exitDx=0;exitDy=0;entryX=0.5;entryY=0;entryDx=0;entryDy=0;" parent="iMa34KQQT_nmR7081gpe-17" source="iMa34KQQT_nmR7081gpe-40" target="iMa34KQQT_nmR7081gpe-44" edge="1">
          <mxGeometry relative="1" as="geometry" />
        </mxCell>
        <mxCell id="iMa34KQQT_nmR7081gpe-40" value="&lt;font face=&quot;Times New Roman&quot;&gt;&lt;span style=&quot;font-size: 16px;&quot;&gt;雨刷周期校准&lt;/span&gt;&lt;/font&gt;" style="rounded=1;whiteSpace=wrap;html=1;container=0;" parent="iMa34KQQT_nmR7081gpe-17" vertex="1">
          <mxGeometry x="699" y="328" width="110" height="40" as="geometry" />
        </mxCell>
        <mxCell id="iMa34KQQT_nmR7081gpe-41" value="&lt;font style=&quot;font-size: 16px;&quot; face=&quot;Times New Roman&quot;&gt;Switch&lt;/font&gt;" style="text;html=1;align=center;verticalAlign=middle;whiteSpace=wrap;rounded=0;container=0;" parent="iMa34KQQT_nmR7081gpe-17" vertex="1">
          <mxGeometry x="584" y="255.09000000000003" width="90" height="30" as="geometry" />
        </mxCell>
        <mxCell id="iMa34KQQT_nmR7081gpe-42" value="&lt;font style=&quot;font-size: 16px;&quot; face=&quot;Times New Roman&quot;&gt;Position Sensor&lt;/font&gt;" style="text;html=1;align=center;verticalAlign=middle;whiteSpace=wrap;rounded=0;container=0;" parent="iMa34KQQT_nmR7081gpe-17" vertex="1">
          <mxGeometry x="674" y="290.09000000000003" width="90" height="40" as="geometry" />
        </mxCell>
        <mxCell id="iMa34KQQT_nmR7081gpe-43" style="edgeStyle=orthogonalEdgeStyle;rounded=0;orthogonalLoop=1;jettySize=auto;html=1;exitX=0.5;exitY=1;exitDx=0;exitDy=0;entryX=0.5;entryY=0;entryDx=0;entryDy=0;entryPerimeter=0;" parent="iMa34KQQT_nmR7081gpe-17" source="iMa34KQQT_nmR7081gpe-33" target="iMa34KQQT_nmR7081gpe-37" edge="1">
          <mxGeometry relative="1" as="geometry" />
        </mxCell>
        <mxCell id="iMa34KQQT_nmR7081gpe-44" value="&lt;font face=&quot;Times New Roman&quot;&gt;&lt;span style=&quot;font-size: 16px;&quot;&gt;更新周期&lt;/span&gt;&lt;/font&gt;" style="rounded=1;whiteSpace=wrap;html=1;container=0;" parent="iMa34KQQT_nmR7081gpe-17" vertex="1">
          <mxGeometry x="699" y="398" width="110" height="40" as="geometry" />
        </mxCell>
        <mxCell id="iMa34KQQT_nmR7081gpe-45" value="&lt;font face=&quot;Times New Roman&quot; style=&quot;font-size: 16px;&quot;&gt;Water Level Sensor&lt;/font&gt;" style="text;html=1;align=center;verticalAlign=middle;whiteSpace=wrap;rounded=0;container=0;" parent="iMa34KQQT_nmR7081gpe-17" vertex="1">
          <mxGeometry x="830" y="245.09000000000003" width="90" height="40" as="geometry" />
        </mxCell>
        <mxCell id="iMa34KQQT_nmR7081gpe-46" value="&lt;font face=&quot;Times New Roman&quot;&gt;&lt;span style=&quot;font-size: 16px;&quot;&gt;START&lt;/span&gt;&lt;/font&gt;" style="rounded=1;whiteSpace=wrap;html=1;container=0;" parent="iMa34KQQT_nmR7081gpe-17" vertex="1">
          <mxGeometry x="15" y="347.5" width="110" height="40" as="geometry" />
        </mxCell>
        <mxCell id="iMa34KQQT_nmR7081gpe-47" value="&lt;font face=&quot;Times New Roman&quot;&gt;&lt;span style=&quot;font-size: 16px;&quot;&gt;RUN&lt;/span&gt;&lt;/font&gt;" style="rounded=1;whiteSpace=wrap;html=1;container=0;" parent="iMa34KQQT_nmR7081gpe-17" vertex="1">
          <mxGeometry x="150" y="347.5" width="110" height="40" as="geometry" />
        </mxCell>
        <mxCell id="iMa34KQQT_nmR7081gpe-48" value="&lt;font face=&quot;Times New Roman&quot;&gt;&lt;span style=&quot;font-size: 16px;&quot;&gt;STOP&lt;/span&gt;&lt;/font&gt;" style="rounded=1;whiteSpace=wrap;html=1;container=0;" parent="iMa34KQQT_nmR7081gpe-17" vertex="1">
          <mxGeometry x="290" y="347.5" width="110" height="40" as="geometry" />
        </mxCell>
        <mxCell id="iMa34KQQT_nmR7081gpe-49" value="&lt;font face=&quot;Times New Roman&quot;&gt;&lt;span style=&quot;font-size: 16px;&quot;&gt;FAULT&lt;/span&gt;&lt;/font&gt;" style="rounded=1;whiteSpace=wrap;html=1;container=0;" parent="iMa34KQQT_nmR7081gpe-17" vertex="1">
          <mxGeometry x="425" y="347.5" width="110" height="40" as="geometry" />
        </mxCell>
        <mxCell id="iMa34KQQT_nmR7081gpe-50" value="&lt;font face=&quot;Times New Roman&quot;&gt;&lt;span style=&quot;font-size: 16px;&quot;&gt;Fast&lt;/span&gt;&lt;/font&gt;" style="rounded=1;whiteSpace=wrap;html=1;container=0;" parent="iMa34KQQT_nmR7081gpe-17" vertex="1">
          <mxGeometry x="75" y="550" width="50" height="40" as="geometry" />
        </mxCell>
        <mxCell id="iMa34KQQT_nmR7081gpe-51" value="&lt;font face=&quot;Times New Roman&quot;&gt;&lt;span style=&quot;font-size: 16px;&quot;&gt;Slow&lt;/span&gt;&lt;/font&gt;" style="rounded=1;whiteSpace=wrap;html=1;container=0;" parent="iMa34KQQT_nmR7081gpe-17" vertex="1">
          <mxGeometry x="145" y="550" width="50" height="40" as="geometry" />
        </mxCell>
        <mxCell id="iMa34KQQT_nmR7081gpe-52" value="&lt;font face=&quot;Times New Roman&quot;&gt;&lt;span style=&quot;font-size: 16px;&quot;&gt;INT&lt;/span&gt;&lt;/font&gt;" style="rounded=1;whiteSpace=wrap;html=1;container=0;" parent="iMa34KQQT_nmR7081gpe-17" vertex="1">
          <mxGeometry x="215" y="550" width="50" height="40" as="geometry" />
        </mxCell>
        <mxCell id="iMa34KQQT_nmR7081gpe-53" value="&lt;font face=&quot;Times New Roman&quot;&gt;&lt;span style=&quot;font-size: 16px;&quot;&gt;Wash&lt;/span&gt;&lt;/font&gt;" style="rounded=1;whiteSpace=wrap;html=1;container=0;" parent="iMa34KQQT_nmR7081gpe-17" vertex="1">
          <mxGeometry x="285" y="550" width="50" height="40" as="geometry" />
        </mxCell>
        <mxCell id="iMa34KQQT_nmR7081gpe-54" style="edgeStyle=orthogonalEdgeStyle;rounded=0;orthogonalLoop=1;jettySize=auto;html=1;exitX=0.5;exitY=1;exitDx=0;exitDy=0;entryX=0.5;entryY=0;entryDx=0;entryDy=0;entryPerimeter=0;" parent="iMa34KQQT_nmR7081gpe-17" source="iMa34KQQT_nmR7081gpe-49" target="iMa34KQQT_nmR7081gpe-24" edge="1">
          <mxGeometry relative="1" as="geometry" />
        </mxCell>
        <mxCell id="iMa34KQQT_nmR7081gpe-55" value="&lt;font face=&quot;Times New Roman&quot;&gt;&lt;span style=&quot;font-size: 16px;&quot;&gt;模式切换？&lt;/span&gt;&lt;/font&gt;" style="strokeWidth=2;html=1;shape=mxgraph.flowchart.decision;whiteSpace=wrap;container=0;" parent="iMa34KQQT_nmR7081gpe-17" vertex="1">
          <mxGeometry x="145" y="411" width="120" height="80" as="geometry" />
        </mxCell>
        <mxCell id="iMa34KQQT_nmR7081gpe-56" style="edgeStyle=orthogonalEdgeStyle;rounded=0;orthogonalLoop=1;jettySize=auto;html=1;exitX=0.5;exitY=1;exitDx=0;exitDy=0;entryX=0.5;entryY=0;entryDx=0;entryDy=0;entryPerimeter=0;" parent="iMa34KQQT_nmR7081gpe-17" source="iMa34KQQT_nmR7081gpe-47" target="iMa34KQQT_nmR7081gpe-55" edge="1">
          <mxGeometry relative="1" as="geometry" />
        </mxCell>
        <mxCell id="iMa34KQQT_nmR7081gpe-57" style="edgeStyle=orthogonalEdgeStyle;rounded=0;orthogonalLoop=1;jettySize=auto;html=1;exitX=0.5;exitY=1;exitDx=0;exitDy=0;entryX=0.5;entryY=0;entryDx=0;entryDy=0;" parent="iMa34KQQT_nmR7081gpe-17" source="iMa34KQQT_nmR7081gpe-58" target="iMa34KQQT_nmR7081gpe-60" edge="1">
          <mxGeometry relative="1" as="geometry" />
        </mxCell>
        <mxCell id="iMa34KQQT_nmR7081gpe-58" value="&lt;font face=&quot;Times New Roman&quot;&gt;&lt;span style=&quot;font-size: 16px;&quot;&gt;速度反馈&lt;/span&gt;&lt;/font&gt;" style="rounded=1;whiteSpace=wrap;html=1;container=0;" parent="iMa34KQQT_nmR7081gpe-17" vertex="1">
          <mxGeometry x="145" y="628" width="110" height="40" as="geometry" />
        </mxCell>
        <mxCell id="iMa34KQQT_nmR7081gpe-59" style="edgeStyle=orthogonalEdgeStyle;rounded=0;orthogonalLoop=1;jettySize=auto;html=1;exitX=0.5;exitY=1;exitDx=0;exitDy=0;entryX=0.5;entryY=0;entryDx=0;entryDy=0;" parent="iMa34KQQT_nmR7081gpe-17" source="iMa34KQQT_nmR7081gpe-60" target="iMa34KQQT_nmR7081gpe-61" edge="1">
          <mxGeometry relative="1" as="geometry" />
        </mxCell>
        <mxCell id="iMa34KQQT_nmR7081gpe-60" value="&lt;font face=&quot;Times New Roman&quot;&gt;&lt;span style=&quot;font-size: 16px;&quot;&gt;PID&lt;/span&gt;&lt;/font&gt;" style="rounded=1;whiteSpace=wrap;html=1;container=0;" parent="iMa34KQQT_nmR7081gpe-17" vertex="1">
          <mxGeometry x="145" y="690" width="110" height="40" as="geometry" />
        </mxCell>
        <mxCell id="iMa34KQQT_nmR7081gpe-61" value="&lt;font face=&quot;Times New Roman&quot;&gt;&lt;span style=&quot;font-size: 16px;&quot;&gt;设置电流&lt;/span&gt;&lt;/font&gt;" style="rounded=1;whiteSpace=wrap;html=1;container=0;" parent="iMa34KQQT_nmR7081gpe-17" vertex="1">
          <mxGeometry x="145" y="760" width="110" height="40" as="geometry" />
        </mxCell>
        <mxCell id="iMa34KQQT_nmR7081gpe-62" style="edgeStyle=orthogonalEdgeStyle;rounded=0;orthogonalLoop=1;jettySize=auto;html=1;exitX=0.5;exitY=1;exitDx=0;exitDy=0;entryX=0.5;entryY=0;entryDx=0;entryDy=0;" parent="iMa34KQQT_nmR7081gpe-17" source="iMa34KQQT_nmR7081gpe-63" target="iMa34KQQT_nmR7081gpe-58" edge="1">
          <mxGeometry relative="1" as="geometry" />
        </mxCell>
        <mxCell id="iMa34KQQT_nmR7081gpe-63" value="" style="rounded=1;whiteSpace=wrap;html=1;fillColor=none;dashed=1;container=0;" parent="iMa34KQQT_nmR7081gpe-17" vertex="1">
          <mxGeometry x="55" y="540" width="290" height="60" as="geometry" />
        </mxCell>
        <mxCell id="iMa34KQQT_nmR7081gpe-64" value="" style="rounded=0;whiteSpace=wrap;html=1;fillColor=none;dashed=1;container=0;" parent="iMa34KQQT_nmR7081gpe-17" vertex="1">
          <mxGeometry width="1280" height="818" as="geometry" />
        </mxCell>
        <mxCell id="iMa34KQQT_nmR7081gpe-65" style="edgeStyle=orthogonalEdgeStyle;rounded=0;orthogonalLoop=1;jettySize=auto;html=1;exitX=0.5;exitY=1;exitDx=0;exitDy=0;exitPerimeter=0;" parent="iMa34KQQT_nmR7081gpe-17" source="iMa34KQQT_nmR7081gpe-66" edge="1">
          <mxGeometry relative="1" as="geometry">
            <mxPoint x="1060.4705882352941" y="113" as="targetPoint" />
          </mxGeometry>
        </mxCell>
        <mxCell id="iMa34KQQT_nmR7081gpe-66" value="&lt;font face=&quot;Times New Roman&quot;&gt;&lt;span style=&quot;font-size: 16px;&quot;&gt;高频任务&lt;/span&gt;&lt;/font&gt;&lt;br&gt;&lt;div&gt;&lt;font style=&quot;font-size: 16px;&quot; face=&quot;Times New Roman&quot;&gt;Systick中断&lt;/font&gt;&lt;/div&gt;" style="strokeWidth=2;html=1;shape=mxgraph.flowchart.decision;whiteSpace=wrap;container=0;fillColor=#fff2cc;strokeColor=#d6b656;" parent="iMa34KQQT_nmR7081gpe-17" vertex="1">
          <mxGeometry x="1000" y="13" width="120" height="80" as="geometry" />
        </mxCell>
        <mxCell id="iMa34KQQT_nmR7081gpe-67" style="edgeStyle=orthogonalEdgeStyle;rounded=0;orthogonalLoop=1;jettySize=auto;html=1;exitX=0.5;exitY=1;exitDx=0;exitDy=0;exitPerimeter=0;entryX=0.5;entryY=0;entryDx=0;entryDy=0;" parent="iMa34KQQT_nmR7081gpe-17" source="iMa34KQQT_nmR7081gpe-69" target="iMa34KQQT_nmR7081gpe-71" edge="1">
          <mxGeometry relative="1" as="geometry" />
        </mxCell>
        <mxCell id="iMa34KQQT_nmR7081gpe-68" style="edgeStyle=orthogonalEdgeStyle;rounded=0;orthogonalLoop=1;jettySize=auto;html=1;exitX=1;exitY=0.5;exitDx=0;exitDy=0;exitPerimeter=0;entryX=0;entryY=0.5;entryDx=0;entryDy=0;" parent="iMa34KQQT_nmR7081gpe-17" source="iMa34KQQT_nmR7081gpe-69" target="iMa34KQQT_nmR7081gpe-79" edge="1">
          <mxGeometry relative="1" as="geometry" />
        </mxCell>
        <mxCell id="iMa34KQQT_nmR7081gpe-69" value="&lt;font face=&quot;Times New Roman&quot;&gt;&lt;span style=&quot;font-size: 16px;&quot;&gt;电机运行？&lt;/span&gt;&lt;/font&gt;" style="strokeWidth=2;html=1;shape=mxgraph.flowchart.decision;whiteSpace=wrap;container=0;" parent="iMa34KQQT_nmR7081gpe-17" vertex="1">
          <mxGeometry x="1000" y="115.5" width="120" height="65" as="geometry" />
        </mxCell>
        <mxCell id="iMa34KQQT_nmR7081gpe-70" style="edgeStyle=orthogonalEdgeStyle;rounded=0;orthogonalLoop=1;jettySize=auto;html=1;exitX=0.5;exitY=1;exitDx=0;exitDy=0;entryX=0.5;entryY=0;entryDx=0;entryDy=0;" parent="iMa34KQQT_nmR7081gpe-17" source="iMa34KQQT_nmR7081gpe-71" target="iMa34KQQT_nmR7081gpe-73" edge="1">
          <mxGeometry relative="1" as="geometry" />
        </mxCell>
        <mxCell id="iMa34KQQT_nmR7081gpe-71" value="&lt;font face=&quot;Times New Roman&quot;&gt;&lt;span style=&quot;font-size: 16px;&quot;&gt;电流检测&lt;/span&gt;&lt;/font&gt;" style="rounded=1;whiteSpace=wrap;html=1;container=0;" parent="iMa34KQQT_nmR7081gpe-17" vertex="1">
          <mxGeometry x="1005" y="203" width="110" height="40" as="geometry" />
        </mxCell>
        <mxCell id="iMa34KQQT_nmR7081gpe-72" style="edgeStyle=orthogonalEdgeStyle;rounded=0;orthogonalLoop=1;jettySize=auto;html=1;exitX=0.5;exitY=1;exitDx=0;exitDy=0;entryX=0.5;entryY=0;entryDx=0;entryDy=0;" parent="iMa34KQQT_nmR7081gpe-17" source="iMa34KQQT_nmR7081gpe-73" target="iMa34KQQT_nmR7081gpe-74" edge="1">
          <mxGeometry relative="1" as="geometry" />
        </mxCell>
        <mxCell id="iMa34KQQT_nmR7081gpe-73" value="&lt;font face=&quot;Times New Roman&quot;&gt;&lt;span style=&quot;font-size: 16px;&quot;&gt;PID&lt;/span&gt;&lt;/font&gt;" style="rounded=1;whiteSpace=wrap;html=1;container=0;" parent="iMa34KQQT_nmR7081gpe-17" vertex="1">
          <mxGeometry x="1005" y="273" width="110" height="40" as="geometry" />
        </mxCell>
        <mxCell id="iMa34KQQT_nmR7081gpe-74" value="&lt;font face=&quot;Times New Roman&quot;&gt;&lt;span style=&quot;font-size: 16px;&quot;&gt;设置占空比&lt;/span&gt;&lt;/font&gt;" style="rounded=1;whiteSpace=wrap;html=1;container=0;" parent="iMa34KQQT_nmR7081gpe-17" vertex="1">
          <mxGeometry x="1005" y="343" width="110" height="40" as="geometry" />
        </mxCell>
        <mxCell id="iMa34KQQT_nmR7081gpe-75" value="&lt;font style=&quot;font-size: 16px;&quot; face=&quot;Times New Roman&quot;&gt;是&lt;/font&gt;" style="text;html=1;align=center;verticalAlign=middle;whiteSpace=wrap;rounded=0;container=0;" parent="iMa34KQQT_nmR7081gpe-17" vertex="1">
          <mxGeometry x="300" y="85.5" width="60" height="30" as="geometry" />
        </mxCell>
        <mxCell id="iMa34KQQT_nmR7081gpe-76" value="&lt;font style=&quot;font-size: 16px;&quot; face=&quot;Times New Roman&quot;&gt;是&lt;/font&gt;" style="text;html=1;align=center;verticalAlign=middle;whiteSpace=wrap;rounded=0;container=0;" parent="iMa34KQQT_nmR7081gpe-17" vertex="1">
          <mxGeometry x="760" y="83" width="60" height="30" as="geometry" />
        </mxCell>
        <mxCell id="iMa34KQQT_nmR7081gpe-77" value="&lt;font style=&quot;font-size: 16px;&quot; face=&quot;Times New Roman&quot;&gt;是&lt;/font&gt;" style="text;html=1;align=center;verticalAlign=middle;whiteSpace=wrap;rounded=0;container=0;" parent="iMa34KQQT_nmR7081gpe-17" vertex="1">
          <mxGeometry x="1060" y="85.08999999999997" width="60" height="30" as="geometry" />
        </mxCell>
        <mxCell id="iMa34KQQT_nmR7081gpe-78" value="&lt;font style=&quot;font-size: 16px;&quot; face=&quot;Times New Roman&quot;&gt;是&lt;/font&gt;" style="text;html=1;align=center;verticalAlign=middle;whiteSpace=wrap;rounded=0;container=0;" parent="iMa34KQQT_nmR7081gpe-17" vertex="1">
          <mxGeometry x="1070" y="173" width="60" height="30" as="geometry" />
        </mxCell>
        <mxCell id="iMa34KQQT_nmR7081gpe-79" value="&lt;font face=&quot;Times New Roman&quot;&gt;&lt;span style=&quot;font-size: 16px;&quot;&gt;退出&lt;/span&gt;&lt;/font&gt;" style="rounded=1;whiteSpace=wrap;html=1;container=0;" parent="iMa34KQQT_nmR7081gpe-17" vertex="1">
          <mxGeometry x="1150" y="128" width="110" height="40" as="geometry" />
        </mxCell>
        <mxCell id="iMa34KQQT_nmR7081gpe-80" value="&lt;font style=&quot;font-size: 16px;&quot; face=&quot;Times New Roman&quot;&gt;否&lt;/font&gt;" style="text;html=1;align=center;verticalAlign=middle;whiteSpace=wrap;rounded=0;container=0;" parent="iMa34KQQT_nmR7081gpe-17" vertex="1">
          <mxGeometry x="1100" y="118" width="60" height="30" as="geometry" />
        </mxCell>
        <mxCell id="iMa34KQQT_nmR7081gpe-81" value="" style="endArrow=none;html=1;rounded=0;" parent="iMa34KQQT_nmR7081gpe-17" edge="1">
          <mxGeometry width="50" height="50" relative="1" as="geometry">
            <mxPoint x="204" y="518" as="sourcePoint" />
            <mxPoint x="204.3800000000001" y="491" as="targetPoint" />
          </mxGeometry>
        </mxCell>
        <mxCell id="iMa34KQQT_nmR7081gpe-82" value="" style="endArrow=none;html=1;rounded=0;" parent="iMa34KQQT_nmR7081gpe-17" edge="1">
          <mxGeometry width="50" height="50" relative="1" as="geometry">
            <mxPoint x="100" y="518.25" as="sourcePoint" />
            <mxPoint x="310" y="518" as="targetPoint" />
          </mxGeometry>
        </mxCell>
        <mxCell id="iMa34KQQT_nmR7081gpe-83" value="" style="endArrow=classic;html=1;rounded=0;entryX=0.5;entryY=0;entryDx=0;entryDy=0;" parent="iMa34KQQT_nmR7081gpe-17" target="iMa34KQQT_nmR7081gpe-50" edge="1">
          <mxGeometry width="50" height="50" relative="1" as="geometry">
            <mxPoint x="100" y="518" as="sourcePoint" />
            <mxPoint x="740" y="528" as="targetPoint" />
          </mxGeometry>
        </mxCell>
        <mxCell id="iMa34KQQT_nmR7081gpe-84" value="" style="endArrow=classic;html=1;rounded=0;entryX=0.5;entryY=0;entryDx=0;entryDy=0;" parent="iMa34KQQT_nmR7081gpe-17" edge="1">
          <mxGeometry width="50" height="50" relative="1" as="geometry">
            <mxPoint x="169.8800000000001" y="518" as="sourcePoint" />
            <mxPoint x="169.8800000000001" y="550" as="targetPoint" />
          </mxGeometry>
        </mxCell>
        <mxCell id="iMa34KQQT_nmR7081gpe-85" value="" style="endArrow=classic;html=1;rounded=0;entryX=0.5;entryY=0;entryDx=0;entryDy=0;" parent="iMa34KQQT_nmR7081gpe-17" edge="1">
          <mxGeometry width="50" height="50" relative="1" as="geometry">
            <mxPoint x="239.8800000000001" y="518" as="sourcePoint" />
            <mxPoint x="239.8800000000001" y="550" as="targetPoint" />
          </mxGeometry>
        </mxCell>
        <mxCell id="iMa34KQQT_nmR7081gpe-86" value="" style="endArrow=classic;html=1;rounded=0;entryX=0.5;entryY=0;entryDx=0;entryDy=0;" parent="iMa34KQQT_nmR7081gpe-17" edge="1">
          <mxGeometry width="50" height="50" relative="1" as="geometry">
            <mxPoint x="309.8800000000001" y="518" as="sourcePoint" />
            <mxPoint x="309.8800000000001" y="550" as="targetPoint" />
          </mxGeometry>
        </mxCell>
        <mxCell id="iMa34KQQT_nmR7081gpe-87" value="&lt;font style=&quot;font-size: 16px;&quot; face=&quot;Times New Roman&quot;&gt;是&lt;/font&gt;" style="text;html=1;align=center;verticalAlign=middle;whiteSpace=wrap;rounded=0;container=0;" parent="iMa34KQQT_nmR7081gpe-17" vertex="1">
          <mxGeometry x="494" y="480.0899999999999" width="60" height="30" as="geometry" />
        </mxCell>
        <mxCell id="iMa34KQQT_nmR7081gpe-88" value="" style="endArrow=none;html=1;rounded=0;entryX=0.5;entryY=1;entryDx=0;entryDy=0;entryPerimeter=0;" parent="iMa34KQQT_nmR7081gpe-17" target="iMa34KQQT_nmR7081gpe-32" edge="1">
          <mxGeometry width="50" height="50" relative="1" as="geometry">
            <mxPoint x="275" y="318" as="sourcePoint" />
            <mxPoint x="280" y="298.5" as="targetPoint" />
          </mxGeometry>
        </mxCell>
        <mxCell id="iMa34KQQT_nmR7081gpe-89" value="" style="endArrow=none;html=1;rounded=0;" parent="iMa34KQQT_nmR7081gpe-17" edge="1">
          <mxGeometry width="50" height="50" relative="1" as="geometry">
            <mxPoint x="70" y="318" as="sourcePoint" />
            <mxPoint x="480" y="318" as="targetPoint" />
          </mxGeometry>
        </mxCell>
        <mxCell id="iMa34KQQT_nmR7081gpe-90" value="" style="endArrow=classic;html=1;rounded=0;" parent="iMa34KQQT_nmR7081gpe-17" edge="1">
          <mxGeometry width="50" height="50" relative="1" as="geometry">
            <mxPoint x="69.94000000000005" y="318" as="sourcePoint" />
            <mxPoint x="69.66000000000008" y="347.5" as="targetPoint" />
          </mxGeometry>
        </mxCell>
        <mxCell id="iMa34KQQT_nmR7081gpe-91" value="" style="endArrow=classic;html=1;rounded=0;" parent="iMa34KQQT_nmR7081gpe-17" edge="1">
          <mxGeometry width="50" height="50" relative="1" as="geometry">
            <mxPoint x="204.99" y="318" as="sourcePoint" />
            <mxPoint x="204.71000000000004" y="347.5" as="targetPoint" />
          </mxGeometry>
        </mxCell>
        <mxCell id="iMa34KQQT_nmR7081gpe-92" value="" style="endArrow=classic;html=1;rounded=0;" parent="iMa34KQQT_nmR7081gpe-17" edge="1">
          <mxGeometry width="50" height="50" relative="1" as="geometry">
            <mxPoint x="345.28" y="318" as="sourcePoint" />
            <mxPoint x="345" y="347.5" as="targetPoint" />
          </mxGeometry>
        </mxCell>
        <mxCell id="iMa34KQQT_nmR7081gpe-93" value="" style="endArrow=classic;html=1;rounded=0;" parent="iMa34KQQT_nmR7081gpe-17" edge="1">
          <mxGeometry width="50" height="50" relative="1" as="geometry">
            <mxPoint x="479.6400000000001" y="318" as="sourcePoint" />
            <mxPoint x="479.5" y="347.5" as="targetPoint" />
          </mxGeometry>
        </mxCell>
        <mxCell id="iMa34KQQT_nmR7081gpe-94" value="" style="endArrow=none;html=1;rounded=0;" parent="iMa34KQQT_nmR7081gpe-17" edge="1">
          <mxGeometry width="50" height="50" relative="1" as="geometry">
            <mxPoint x="70" y="318" as="sourcePoint" />
            <mxPoint x="480" y="318" as="targetPoint" />
          </mxGeometry>
        </mxCell>
        <mxCell id="iMa34KQQT_nmR7081gpe-95" value="" style="endArrow=none;html=1;rounded=0;" parent="iMa34KQQT_nmR7081gpe-17" edge="1">
          <mxGeometry width="50" height="50" relative="1" as="geometry">
            <mxPoint x="609" y="288.09000000000003" as="sourcePoint" />
            <mxPoint x="899" y="288.09000000000003" as="targetPoint" />
          </mxGeometry>
        </mxCell>
        <mxCell id="iMa34KQQT_nmR7081gpe-96" value="" style="endArrow=classic;html=1;rounded=0;" parent="iMa34KQQT_nmR7081gpe-17" edge="1">
          <mxGeometry width="50" height="50" relative="1" as="geometry">
            <mxPoint x="609" y="288" as="sourcePoint" />
            <mxPoint x="609" y="328" as="targetPoint" />
          </mxGeometry>
        </mxCell>
        <mxCell id="iMa34KQQT_nmR7081gpe-97" value="" style="endArrow=classic;html=1;rounded=0;" parent="iMa34KQQT_nmR7081gpe-17" edge="1">
          <mxGeometry width="50" height="50" relative="1" as="geometry">
            <mxPoint x="898.77" y="288" as="sourcePoint" />
            <mxPoint x="898.77" y="328" as="targetPoint" />
          </mxGeometry>
        </mxCell>
        <mxCell id="iMa34KQQT_nmR7081gpe-98" value="" style="group" parent="iMa34KQQT_nmR7081gpe-1" vertex="1" connectable="0">
          <mxGeometry x="1050" y="640" width="720" height="514.9999999999998" as="geometry" />
        </mxCell>
        <mxCell id="iMa34KQQT_nmR7081gpe-99" style="edgeStyle=orthogonalEdgeStyle;rounded=0;orthogonalLoop=1;jettySize=auto;html=1;exitX=0.5;exitY=1;exitDx=0;exitDy=0;" parent="iMa34KQQT_nmR7081gpe-98" edge="1">
          <mxGeometry relative="1" as="geometry">
            <mxPoint x="405" y="514.9999999999998" as="sourcePoint" />
            <mxPoint x="405" y="514.9999999999998" as="targetPoint" />
          </mxGeometry>
        </mxCell>
        <mxCell id="iMa34KQQT_nmR7081gpe-100" style="edgeStyle=orthogonalEdgeStyle;rounded=0;orthogonalLoop=1;jettySize=auto;html=1;exitX=0.5;exitY=1;exitDx=0;exitDy=0;" parent="iMa34KQQT_nmR7081gpe-98" source="iMa34KQQT_nmR7081gpe-101" target="iMa34KQQT_nmR7081gpe-102" edge="1">
          <mxGeometry relative="1" as="geometry">
            <Array as="points">
              <mxPoint x="250" y="185" />
              <mxPoint x="85" y="185" />
            </Array>
          </mxGeometry>
        </mxCell>
        <mxCell id="iMa34KQQT_nmR7081gpe-101" value="&lt;font style=&quot;font-size: 16px;&quot; face=&quot;Times New Roman&quot;&gt;ADC采集&lt;/font&gt;" style="rounded=1;whiteSpace=wrap;html=1;container=0;" parent="iMa34KQQT_nmR7081gpe-98" vertex="1">
          <mxGeometry x="195" y="125" width="110" height="40" as="geometry" />
        </mxCell>
        <mxCell id="iMa34KQQT_nmR7081gpe-102" value="&lt;font face=&quot;Times New Roman&quot;&gt;&lt;span style=&quot;font-size: 16px;&quot;&gt;读取电机电流&lt;/span&gt;&lt;/font&gt;" style="rounded=1;whiteSpace=wrap;html=1;container=0;" parent="iMa34KQQT_nmR7081gpe-98" vertex="1">
          <mxGeometry x="25" y="205" width="110" height="40" as="geometry" />
        </mxCell>
        <mxCell id="iMa34KQQT_nmR7081gpe-103" value="&lt;font style=&quot;font-size: 16px;&quot; face=&quot;Times New Roman&quot;&gt;读取电源电压&lt;/font&gt;" style="rounded=1;whiteSpace=wrap;html=1;container=0;" parent="iMa34KQQT_nmR7081gpe-98" vertex="1">
          <mxGeometry x="195" y="205" width="110" height="40" as="geometry" />
        </mxCell>
        <mxCell id="iMa34KQQT_nmR7081gpe-104" value="&lt;font style=&quot;font-size: 16px;&quot; face=&quot;Times New Roman&quot;&gt;读取温度&lt;/font&gt;" style="rounded=1;whiteSpace=wrap;html=1;container=0;" parent="iMa34KQQT_nmR7081gpe-98" vertex="1">
          <mxGeometry x="360" y="205" width="110" height="40" as="geometry" />
        </mxCell>
        <mxCell id="iMa34KQQT_nmR7081gpe-105" style="edgeStyle=orthogonalEdgeStyle;rounded=0;orthogonalLoop=1;jettySize=auto;html=1;exitX=0.5;exitY=1;exitDx=0;exitDy=0;exitPerimeter=0;entryX=0.5;entryY=0;entryDx=0;entryDy=0;" parent="iMa34KQQT_nmR7081gpe-98" source="iMa34KQQT_nmR7081gpe-106" target="iMa34KQQT_nmR7081gpe-117" edge="1">
          <mxGeometry relative="1" as="geometry">
            <Array as="points">
              <mxPoint x="80" y="395" />
              <mxPoint x="250" y="395" />
            </Array>
          </mxGeometry>
        </mxCell>
        <mxCell id="iMa34KQQT_nmR7081gpe-106" value="&lt;font style=&quot;font-size: 16px;&quot; face=&quot;Times New Roman&quot;&gt;过流？&lt;/font&gt;" style="strokeWidth=2;html=1;shape=mxgraph.flowchart.decision;whiteSpace=wrap;container=0;" parent="iMa34KQQT_nmR7081gpe-98" vertex="1">
          <mxGeometry x="20" y="285" width="120" height="80" as="geometry" />
        </mxCell>
        <mxCell id="iMa34KQQT_nmR7081gpe-107" style="edgeStyle=orthogonalEdgeStyle;rounded=0;orthogonalLoop=1;jettySize=auto;html=1;exitX=0.5;exitY=1;exitDx=0;exitDy=0;exitPerimeter=0;" parent="iMa34KQQT_nmR7081gpe-98" source="iMa34KQQT_nmR7081gpe-108" edge="1">
          <mxGeometry relative="1" as="geometry">
            <mxPoint x="250.2352941176473" y="414.9999999999998" as="targetPoint" />
          </mxGeometry>
        </mxCell>
        <mxCell id="iMa34KQQT_nmR7081gpe-108" value="&lt;font style=&quot;font-size: 16px;&quot; face=&quot;Times New Roman&quot;&gt;过压？&lt;br&gt;欠压？&lt;/font&gt;" style="strokeWidth=2;html=1;shape=mxgraph.flowchart.decision;whiteSpace=wrap;container=0;" parent="iMa34KQQT_nmR7081gpe-98" vertex="1">
          <mxGeometry x="190" y="285" width="120" height="80" as="geometry" />
        </mxCell>
        <mxCell id="iMa34KQQT_nmR7081gpe-109" style="edgeStyle=orthogonalEdgeStyle;rounded=0;orthogonalLoop=1;jettySize=auto;html=1;exitX=0.5;exitY=1;exitDx=0;exitDy=0;exitPerimeter=0;entryX=0.5;entryY=0;entryDx=0;entryDy=0;" parent="iMa34KQQT_nmR7081gpe-98" source="iMa34KQQT_nmR7081gpe-110" target="iMa34KQQT_nmR7081gpe-117" edge="1">
          <mxGeometry relative="1" as="geometry">
            <Array as="points">
              <mxPoint x="415" y="395" />
              <mxPoint x="250" y="395" />
            </Array>
          </mxGeometry>
        </mxCell>
        <mxCell id="iMa34KQQT_nmR7081gpe-110" value="&lt;font style=&quot;font-size: 16px;&quot; face=&quot;Times New Roman&quot;&gt;温度过高？&lt;/font&gt;" style="strokeWidth=2;html=1;shape=mxgraph.flowchart.decision;whiteSpace=wrap;container=0;" parent="iMa34KQQT_nmR7081gpe-98" vertex="1">
          <mxGeometry x="355" y="285" width="120" height="80" as="geometry" />
        </mxCell>
        <mxCell id="iMa34KQQT_nmR7081gpe-111" value="" style="endArrow=classic;html=1;rounded=0;entryX=0.5;entryY=0;entryDx=0;entryDy=0;" parent="iMa34KQQT_nmR7081gpe-98" target="iMa34KQQT_nmR7081gpe-103" edge="1">
          <mxGeometry width="50" height="50" relative="1" as="geometry">
            <mxPoint x="250" y="185" as="sourcePoint" />
            <mxPoint x="415" y="95" as="targetPoint" />
          </mxGeometry>
        </mxCell>
        <mxCell id="iMa34KQQT_nmR7081gpe-112" value="" style="endArrow=none;html=1;rounded=0;" parent="iMa34KQQT_nmR7081gpe-98" edge="1">
          <mxGeometry width="50" height="50" relative="1" as="geometry">
            <mxPoint x="245" y="185" as="sourcePoint" />
            <mxPoint x="415" y="185" as="targetPoint" />
          </mxGeometry>
        </mxCell>
        <mxCell id="iMa34KQQT_nmR7081gpe-113" value="" style="endArrow=classic;html=1;rounded=0;" parent="iMa34KQQT_nmR7081gpe-98" target="iMa34KQQT_nmR7081gpe-104" edge="1">
          <mxGeometry width="50" height="50" relative="1" as="geometry">
            <mxPoint x="415" y="185" as="sourcePoint" />
            <mxPoint x="415" y="95" as="targetPoint" />
          </mxGeometry>
        </mxCell>
        <mxCell id="iMa34KQQT_nmR7081gpe-114" style="edgeStyle=orthogonalEdgeStyle;rounded=0;orthogonalLoop=1;jettySize=auto;html=1;exitX=0.5;exitY=1;exitDx=0;exitDy=0;entryX=0.5;entryY=0;entryDx=0;entryDy=0;entryPerimeter=0;" parent="iMa34KQQT_nmR7081gpe-98" source="iMa34KQQT_nmR7081gpe-102" target="iMa34KQQT_nmR7081gpe-106" edge="1">
          <mxGeometry relative="1" as="geometry" />
        </mxCell>
        <mxCell id="iMa34KQQT_nmR7081gpe-115" style="edgeStyle=orthogonalEdgeStyle;rounded=0;orthogonalLoop=1;jettySize=auto;html=1;exitX=0.5;exitY=1;exitDx=0;exitDy=0;entryX=0.5;entryY=0;entryDx=0;entryDy=0;entryPerimeter=0;" parent="iMa34KQQT_nmR7081gpe-98" source="iMa34KQQT_nmR7081gpe-103" target="iMa34KQQT_nmR7081gpe-108" edge="1">
          <mxGeometry relative="1" as="geometry" />
        </mxCell>
        <mxCell id="iMa34KQQT_nmR7081gpe-116" style="edgeStyle=orthogonalEdgeStyle;rounded=0;orthogonalLoop=1;jettySize=auto;html=1;entryX=0.5;entryY=0;entryDx=0;entryDy=0;entryPerimeter=0;" parent="iMa34KQQT_nmR7081gpe-98" source="iMa34KQQT_nmR7081gpe-104" target="iMa34KQQT_nmR7081gpe-110" edge="1">
          <mxGeometry relative="1" as="geometry" />
        </mxCell>
        <mxCell id="iMa34KQQT_nmR7081gpe-117" value="&lt;font style=&quot;font-size: 16px;&quot; face=&quot;Times New Roman&quot;&gt;置位故障标志&lt;/font&gt;" style="rounded=1;whiteSpace=wrap;html=1;container=0;" parent="iMa34KQQT_nmR7081gpe-98" vertex="1">
          <mxGeometry x="195" y="415" width="110" height="40" as="geometry" />
        </mxCell>
        <mxCell id="iMa34KQQT_nmR7081gpe-118" value="" style="endArrow=none;html=1;rounded=0;" parent="iMa34KQQT_nmR7081gpe-98" edge="1">
          <mxGeometry width="50" height="50" relative="1" as="geometry">
            <mxPoint x="415" y="395" as="sourcePoint" />
            <mxPoint x="415" y="365" as="targetPoint" />
          </mxGeometry>
        </mxCell>
        <mxCell id="iMa34KQQT_nmR7081gpe-119" value="&lt;font style=&quot;font-size: 16px;&quot; face=&quot;Times New Roman&quot;&gt;是&lt;/font&gt;" style="text;html=1;align=center;verticalAlign=middle;whiteSpace=wrap;rounded=0;container=0;" parent="iMa34KQQT_nmR7081gpe-98" vertex="1">
          <mxGeometry x="80" y="355" width="60" height="30" as="geometry" />
        </mxCell>
        <mxCell id="iMa34KQQT_nmR7081gpe-120" value="&lt;font style=&quot;font-size: 16px;&quot; face=&quot;Times New Roman&quot;&gt;是&lt;/font&gt;" style="text;html=1;align=center;verticalAlign=middle;whiteSpace=wrap;rounded=0;container=0;" parent="iMa34KQQT_nmR7081gpe-98" vertex="1">
          <mxGeometry x="245" y="355" width="60" height="30" as="geometry" />
        </mxCell>
        <mxCell id="iMa34KQQT_nmR7081gpe-121" value="&lt;font style=&quot;font-size: 16px;&quot; face=&quot;Times New Roman&quot;&gt;是&lt;/font&gt;" style="text;html=1;align=center;verticalAlign=middle;whiteSpace=wrap;rounded=0;container=0;" parent="iMa34KQQT_nmR7081gpe-98" vertex="1">
          <mxGeometry x="415" y="355" width="60" height="30" as="geometry" />
        </mxCell>
        <mxCell id="iMa34KQQT_nmR7081gpe-122" style="edgeStyle=orthogonalEdgeStyle;rounded=0;orthogonalLoop=1;jettySize=auto;html=1;exitX=0.5;exitY=1;exitDx=0;exitDy=0;exitPerimeter=0;entryX=0.5;entryY=0;entryDx=0;entryDy=0;" parent="iMa34KQQT_nmR7081gpe-98" target="iMa34KQQT_nmR7081gpe-101" edge="1">
          <mxGeometry relative="1" as="geometry">
            <mxPoint x="249.99999999999955" y="100" as="sourcePoint" />
          </mxGeometry>
        </mxCell>
        <mxCell id="iMa34KQQT_nmR7081gpe-123" value="&lt;font style=&quot;font-size: 16px;&quot; face=&quot;Times New Roman&quot;&gt;检测比较信号&lt;/font&gt;" style="rounded=1;whiteSpace=wrap;html=1;container=0;" parent="iMa34KQQT_nmR7081gpe-98" vertex="1">
          <mxGeometry x="545" y="150" width="110" height="40" as="geometry" />
        </mxCell>
        <mxCell id="iMa34KQQT_nmR7081gpe-124" value="&lt;font face=&quot;Times New Roman&quot;&gt;&lt;span style=&quot;font-size: 16px;&quot;&gt;低频任务&lt;/span&gt;&lt;/font&gt;&lt;br&gt;&lt;div&gt;&lt;font style=&quot;font-size: 16px;&quot; face=&quot;Times New Roman&quot;&gt;Systick中断&lt;/font&gt;&lt;/div&gt;" style="strokeWidth=2;html=1;shape=mxgraph.flowchart.decision;whiteSpace=wrap;container=0;fillColor=#fff2cc;strokeColor=#d6b656;" parent="iMa34KQQT_nmR7081gpe-98" vertex="1">
          <mxGeometry x="190" y="20" width="120" height="80" as="geometry" />
        </mxCell>
        <mxCell id="iMa34KQQT_nmR7081gpe-125" value="&lt;font style=&quot;font-size: 16px;&quot; face=&quot;Times New Roman&quot;&gt;是&lt;/font&gt;" style="text;html=1;align=center;verticalAlign=middle;whiteSpace=wrap;rounded=0;container=0;" parent="iMa34KQQT_nmR7081gpe-98" vertex="1">
          <mxGeometry x="253.5" y="90" width="60" height="30" as="geometry" />
        </mxCell>
        <mxCell id="iMa34KQQT_nmR7081gpe-126" style="edgeStyle=orthogonalEdgeStyle;rounded=0;orthogonalLoop=1;jettySize=auto;html=1;exitX=0.5;exitY=1;exitDx=0;exitDy=0;exitPerimeter=0;entryX=0.5;entryY=0;entryDx=0;entryDy=0;" parent="iMa34KQQT_nmR7081gpe-98" source="iMa34KQQT_nmR7081gpe-127" target="iMa34KQQT_nmR7081gpe-123" edge="1">
          <mxGeometry relative="1" as="geometry" />
        </mxCell>
        <mxCell id="iMa34KQQT_nmR7081gpe-127" value="&lt;font face=&quot;Times New Roman&quot;&gt;&lt;span style=&quot;font-size: 16px;&quot;&gt;事件驱动&lt;br&gt;触发中断&lt;/span&gt;&lt;/font&gt;" style="strokeWidth=2;html=1;shape=mxgraph.flowchart.decision;whiteSpace=wrap;container=0;fillColor=#fff2cc;strokeColor=#d6b656;" parent="iMa34KQQT_nmR7081gpe-98" vertex="1">
          <mxGeometry x="540" y="25" width="120" height="80" as="geometry" />
        </mxCell>
        <mxCell id="iMa34KQQT_nmR7081gpe-128" style="edgeStyle=orthogonalEdgeStyle;rounded=0;orthogonalLoop=1;jettySize=auto;html=1;exitX=0.5;exitY=1;exitDx=0;exitDy=0;exitPerimeter=0;entryX=0.5;entryY=0;entryDx=0;entryDy=0;" parent="iMa34KQQT_nmR7081gpe-98" source="iMa34KQQT_nmR7081gpe-129" target="iMa34KQQT_nmR7081gpe-130" edge="1">
          <mxGeometry relative="1" as="geometry" />
        </mxCell>
        <mxCell id="iMa34KQQT_nmR7081gpe-129" value="&lt;font style=&quot;font-size: 16px;&quot; face=&quot;Times New Roman&quot;&gt;触发故障？&lt;/font&gt;" style="strokeWidth=2;html=1;shape=mxgraph.flowchart.decision;whiteSpace=wrap;container=0;" parent="iMa34KQQT_nmR7081gpe-98" vertex="1">
          <mxGeometry x="540" y="220" width="120" height="80" as="geometry" />
        </mxCell>
        <mxCell id="iMa34KQQT_nmR7081gpe-130" value="&lt;font face=&quot;Times New Roman&quot;&gt;&lt;span style=&quot;font-size: 16px;&quot;&gt;置位故障标志&lt;/span&gt;&lt;/font&gt;" style="rounded=1;whiteSpace=wrap;html=1;container=0;" parent="iMa34KQQT_nmR7081gpe-98" vertex="1">
          <mxGeometry x="545" y="340" width="110" height="40" as="geometry" />
        </mxCell>
        <mxCell id="iMa34KQQT_nmR7081gpe-131" style="edgeStyle=orthogonalEdgeStyle;rounded=0;orthogonalLoop=1;jettySize=auto;html=1;exitX=0.5;exitY=1;exitDx=0;exitDy=0;entryX=0.5;entryY=0;entryDx=0;entryDy=0;entryPerimeter=0;" parent="iMa34KQQT_nmR7081gpe-98" source="iMa34KQQT_nmR7081gpe-123" target="iMa34KQQT_nmR7081gpe-129" edge="1">
          <mxGeometry relative="1" as="geometry" />
        </mxCell>
        <mxCell id="iMa34KQQT_nmR7081gpe-132" value="&lt;font style=&quot;font-size: 16px;&quot; face=&quot;Times New Roman&quot;&gt;是&lt;/font&gt;" style="text;html=1;align=center;verticalAlign=middle;whiteSpace=wrap;rounded=0;container=0;" parent="iMa34KQQT_nmR7081gpe-98" vertex="1">
          <mxGeometry x="600" y="300" width="60" height="30" as="geometry" />
        </mxCell>
        <mxCell id="iMa34KQQT_nmR7081gpe-133" value="&lt;font style=&quot;font-size: 16px;&quot; face=&quot;Times New Roman&quot;&gt;是&lt;/font&gt;" style="text;html=1;align=center;verticalAlign=middle;whiteSpace=wrap;rounded=0;container=0;" parent="iMa34KQQT_nmR7081gpe-98" vertex="1">
          <mxGeometry x="600" y="115" width="60" height="30" as="geometry" />
        </mxCell>
        <mxCell id="iMa34KQQT_nmR7081gpe-134" value="" style="rounded=0;whiteSpace=wrap;html=1;fillColor=none;dashed=1;strokeColor=default;container=0;" parent="iMa34KQQT_nmR7081gpe-98" vertex="1">
          <mxGeometry x="10" y="270" width="470" height="110" as="geometry" />
        </mxCell>
        <mxCell id="iMa34KQQT_nmR7081gpe-135" value="&lt;font style=&quot;font-size: 16px;&quot; face=&quot;Times New Roman&quot;&gt;继续正常循行&lt;/font&gt;" style="rounded=1;whiteSpace=wrap;html=1;container=0;" parent="iMa34KQQT_nmR7081gpe-98" vertex="1">
          <mxGeometry x="470" y="425" width="110" height="40" as="geometry" />
        </mxCell>
        <mxCell id="iMa34KQQT_nmR7081gpe-136" value="" style="curved=1;endArrow=classic;html=1;rounded=0;strokeColor=#FF3333;" parent="iMa34KQQT_nmR7081gpe-98" target="iMa34KQQT_nmR7081gpe-135" edge="1">
          <mxGeometry width="50" height="50" relative="1" as="geometry">
            <mxPoint x="480" y="325" as="sourcePoint" />
            <mxPoint x="530" y="275" as="targetPoint" />
            <Array as="points">
              <mxPoint x="510" y="340" />
              <mxPoint x="520" y="380" />
            </Array>
          </mxGeometry>
        </mxCell>
        <mxCell id="iMa34KQQT_nmR7081gpe-137" value="" style="curved=1;endArrow=classic;html=1;rounded=0;exitX=0;exitY=0.5;exitDx=0;exitDy=0;exitPerimeter=0;strokeColor=#FF3333;" parent="iMa34KQQT_nmR7081gpe-98" source="iMa34KQQT_nmR7081gpe-129" edge="1">
          <mxGeometry width="50" height="50" relative="1" as="geometry">
            <mxPoint x="570" y="250" as="sourcePoint" />
            <mxPoint x="525" y="420" as="targetPoint" />
            <Array as="points">
              <mxPoint x="530" y="300" />
            </Array>
          </mxGeometry>
        </mxCell>
        <mxCell id="iMa34KQQT_nmR7081gpe-138" value="&lt;font style=&quot;font-size: 16px;&quot; face=&quot;Times New Roman&quot;&gt;否&lt;/font&gt;" style="text;html=1;align=center;verticalAlign=middle;whiteSpace=wrap;rounded=0;container=0;" parent="iMa34KQQT_nmR7081gpe-98" vertex="1">
          <mxGeometry x="480" y="310" width="60" height="30" as="geometry" />
        </mxCell>
        <mxCell id="iMa34KQQT_nmR7081gpe-139" value="&lt;font style=&quot;font-size: 16px;&quot; face=&quot;Times New Roman&quot;&gt;否&lt;/font&gt;" style="text;html=1;align=center;verticalAlign=middle;whiteSpace=wrap;rounded=0;container=0;" parent="iMa34KQQT_nmR7081gpe-98" vertex="1">
          <mxGeometry x="530" y="300" width="60" height="30" as="geometry" />
        </mxCell>
        <mxCell id="iMa34KQQT_nmR7081gpe-140" value="" style="rounded=0;whiteSpace=wrap;html=1;fillColor=none;dashed=1;container=0;" parent="iMa34KQQT_nmR7081gpe-98" vertex="1">
          <mxGeometry width="720" height="480" as="geometry" />
        </mxCell>
        <mxCell id="iMa34KQQT_nmR7081gpe-141" value="&lt;font style=&quot;font-size: 16px;&quot; face=&quot;Times New Roman&quot;&gt;故障检测&lt;/font&gt;" style="rounded=1;whiteSpace=wrap;html=1;container=0;fillColor=#dae8fc;strokeColor=#6c8ebf;" parent="iMa34KQQT_nmR7081gpe-1" vertex="1">
          <mxGeometry x="1340" y="600" width="110" height="40" as="geometry" />
        </mxCell>
        <mxCell id="iMa34KQQT_nmR7081gpe-142" value="&lt;font style=&quot;font-size: 16px;&quot; face=&quot;Times New Roman&quot;&gt;通信&lt;/font&gt;" style="rounded=1;whiteSpace=wrap;html=1;container=0;fillColor=#dae8fc;strokeColor=#6c8ebf;" parent="iMa34KQQT_nmR7081gpe-1" vertex="1">
          <mxGeometry x="1990" y="600" width="110" height="40" as="geometry" />
        </mxCell>
        <mxCell id="iMa34KQQT_nmR7081gpe-143" value="&lt;font style=&quot;font-size: 16px;&quot; face=&quot;Times New Roman&quot;&gt;模式控制&lt;/font&gt;" style="rounded=1;whiteSpace=wrap;html=1;container=0;fillColor=#dae8fc;strokeColor=#6c8ebf;" parent="iMa34KQQT_nmR7081gpe-1" vertex="1">
          <mxGeometry x="1630" y="1180" width="110" height="40" as="geometry" />
        </mxCell>
        <mxCell id="iMa34KQQT_nmR7081gpe-174" value="" style="group" parent="iMa34KQQT_nmR7081gpe-1" vertex="1" connectable="0">
          <mxGeometry x="1000" y="150" width="540" height="290" as="geometry" />
        </mxCell>
        <mxCell id="iMa34KQQT_nmR7081gpe-175" style="edgeStyle=orthogonalEdgeStyle;rounded=0;orthogonalLoop=1;jettySize=auto;html=1;exitX=0.5;exitY=1;exitDx=0;exitDy=0;exitPerimeter=0;entryX=0.5;entryY=0;entryDx=0;entryDy=0;" parent="iMa34KQQT_nmR7081gpe-174" source="iMa34KQQT_nmR7081gpe-176" target="iMa34KQQT_nmR7081gpe-178" edge="1">
          <mxGeometry relative="1" as="geometry" />
        </mxCell>
        <mxCell id="iMa34KQQT_nmR7081gpe-176" value="&lt;font style=&quot;font-size: 16px;&quot; face=&quot;Times New Roman&quot;&gt;系统初始化&lt;/font&gt;" style="strokeWidth=2;html=1;shape=mxgraph.flowchart.terminator;whiteSpace=wrap;" parent="iMa34KQQT_nmR7081gpe-174" vertex="1">
          <mxGeometry x="180" width="100" height="50" as="geometry" />
        </mxCell>
        <mxCell id="iMa34KQQT_nmR7081gpe-177" style="edgeStyle=orthogonalEdgeStyle;rounded=0;orthogonalLoop=1;jettySize=auto;html=1;exitX=0.5;exitY=1;exitDx=0;exitDy=0;entryX=0.5;entryY=0;entryDx=0;entryDy=0;" parent="iMa34KQQT_nmR7081gpe-174" source="iMa34KQQT_nmR7081gpe-178" target="iMa34KQQT_nmR7081gpe-180" edge="1">
          <mxGeometry relative="1" as="geometry" />
        </mxCell>
        <mxCell id="iMa34KQQT_nmR7081gpe-178" value="&lt;font style=&quot;font-size: 16px;&quot; face=&quot;Times New Roman&quot;&gt;While(1)&lt;/font&gt;" style="rounded=1;whiteSpace=wrap;html=1;container=0;" parent="iMa34KQQT_nmR7081gpe-174" vertex="1">
          <mxGeometry x="175" y="90" width="110" height="40" as="geometry" />
        </mxCell>
        <mxCell id="iMa34KQQT_nmR7081gpe-179" value="&lt;font style=&quot;font-size: 16px;&quot; face=&quot;Times New Roman&quot;&gt;故障检测&lt;/font&gt;" style="rounded=1;whiteSpace=wrap;html=1;container=0;fillColor=#dae8fc;strokeColor=#6c8ebf;" parent="iMa34KQQT_nmR7081gpe-174" vertex="1">
          <mxGeometry y="200" width="110" height="40" as="geometry" />
        </mxCell>
        <mxCell id="iMa34KQQT_nmR7081gpe-180" value="&lt;font style=&quot;font-size: 16px;&quot; face=&quot;Times New Roman&quot;&gt;模式控制&lt;/font&gt;" style="rounded=1;whiteSpace=wrap;html=1;container=0;fillColor=#dae8fc;strokeColor=#6c8ebf;" parent="iMa34KQQT_nmR7081gpe-174" vertex="1">
          <mxGeometry x="175" y="200" width="110" height="40" as="geometry" />
        </mxCell>
        <mxCell id="iMa34KQQT_nmR7081gpe-181" value="&lt;font style=&quot;font-size: 16px;&quot; face=&quot;Times New Roman&quot;&gt;通信&lt;/font&gt;" style="rounded=1;whiteSpace=wrap;html=1;container=0;fillColor=#dae8fc;strokeColor=#6c8ebf;" parent="iMa34KQQT_nmR7081gpe-174" vertex="1">
          <mxGeometry x="350" y="200" width="110" height="40" as="geometry" />
        </mxCell>
        <mxCell id="iMa34KQQT_nmR7081gpe-182" value="" style="endArrow=none;html=1;rounded=0;" parent="iMa34KQQT_nmR7081gpe-174" edge="1">
          <mxGeometry width="50" height="50" relative="1" as="geometry">
            <mxPoint x="55" y="150" as="sourcePoint" />
            <mxPoint x="405" y="150" as="targetPoint" />
          </mxGeometry>
        </mxCell>
        <mxCell id="iMa34KQQT_nmR7081gpe-183" value="" style="endArrow=classic;html=1;rounded=0;entryX=0.5;entryY=0;entryDx=0;entryDy=0;" parent="iMa34KQQT_nmR7081gpe-174" target="iMa34KQQT_nmR7081gpe-179" edge="1">
          <mxGeometry width="50" height="50" relative="1" as="geometry">
            <mxPoint x="55" y="150" as="sourcePoint" />
            <mxPoint x="465" y="290" as="targetPoint" />
          </mxGeometry>
        </mxCell>
        <mxCell id="iMa34KQQT_nmR7081gpe-184" value="" style="endArrow=classic;html=1;rounded=0;entryX=0.5;entryY=0;entryDx=0;entryDy=0;" parent="iMa34KQQT_nmR7081gpe-174" edge="1">
          <mxGeometry width="50" height="50" relative="1" as="geometry">
            <mxPoint x="404.28999999999996" y="150" as="sourcePoint" />
            <mxPoint x="404.28999999999996" y="200" as="targetPoint" />
          </mxGeometry>
        </mxCell>
        <mxCell id="iMa34KQQT_nmR7081gpe-185" value="" style="rounded=0;whiteSpace=wrap;html=1;fillColor=none;" parent="iMa34KQQT_nmR7081gpe-174" vertex="1">
          <mxGeometry x="-30" y="-30" width="510" height="290" as="geometry" />
        </mxCell>
        <mxCell id="8OJUYY2nWHy7EJN6gk11-0" value="&lt;font face=&quot;Times New Roman&quot; style=&quot;font-size: 44px;&quot;&gt;FOC框图&lt;/font&gt;" style="text;html=1;align=center;verticalAlign=middle;resizable=0;points=[];autosize=1;strokeColor=none;fillColor=none;" parent="iMa34KQQT_nmR7081gpe-1" vertex="1">
          <mxGeometry x="870" y="20" width="200" height="70" as="geometry" />
        </mxCell>
      </root>
    </mxGraphModel>
  </diagram>
</mxfile>
